<svg width="41" height="45" viewBox="0 0 41 45" fill="none" xmlns="http://www.w3.org/2000/svg">
<path d="M37.6039 26.497C37.9155 25.1497 38.0936 23.8024 38.0936 22.4551C38.0936 21.1527 37.9155 19.8054 37.6039 18.4581L40.1414 15.8533C41.0317 14.9102 41.2543 13.518 40.5865 12.3503L39.2955 10.1048C38.6278 8.98204 37.3368 8.3982 36.0458 8.75749L32.5736 9.65569C30.5703 7.76946 28.1665 6.37725 25.5845 5.61377L24.6052 2.11078C24.249 0.898203 23.0916 0 21.8006 0H19.2187C17.9277 0 16.7703 0.853293 16.4141 2.11078L15.4793 5.56886C12.8528 6.33234 10.4044 7.72455 8.4012 9.61078L4.92892 8.71257C3.68247 8.3982 2.34698 8.93713 1.72375 10.0599L0.432773 12.3054C-0.234972 13.4281 -0.0569068 14.8653 0.83342 15.8084L3.32634 18.4132C2.9702 19.8054 2.83666 21.1527 2.83666 22.5C2.83666 23.8024 3.01472 25.1497 3.32634 26.497L0.83342 29.0569C-0.0569068 29.9551 -0.279489 31.3922 0.388257 32.5599L1.67923 34.8054C2.30246 35.9281 3.63795 36.512 4.88441 36.1976L8.35668 35.2994C10.3154 37.1856 12.7638 38.5778 15.3457 39.3862L16.3251 42.8892C16.6812 44.1467 17.8387 45 19.1296 45H21.8006C23.0916 45 24.249 44.1018 24.6052 42.8443L25.54 39.3862C28.1665 38.6228 30.6149 37.2305 32.6181 35.3443L36.1349 36.2425C37.3813 36.5569 38.7168 36.018 39.3401 34.8952L40.631 32.6497C41.2543 31.5269 41.0762 30.0898 40.1859 29.1467L37.6039 26.497ZM20.4651 31.2126C15.6574 31.2126 11.6954 27.3054 11.6954 22.4551C11.6954 17.6497 15.6128 13.6976 20.4651 13.6976C25.2729 13.6976 29.1903 17.6048 29.1903 22.4551C29.1903 27.2605 25.2729 31.2126 20.4651 31.2126Z" fill="white"/>
</svg>
